#!OML:ASF F:\VICON\USERDATA\INSTALL\Justin_Nancy\Justin_Nancy.ASF
:FULLY-SPECIFIED
:DEGREES
192
root 0.410528 17.3183 0.416271 1.33326 0.933201 4.68486
lowerback 6.54344 -2.65809 -6.50732
upperback -0.0513948 -3.94836 2.58135
thorax -3.10078 -1.85096 6.70415
lowerneck -18.0003 -2.97268 -8.37534
upperneck 20.7411 -2.7922 4.33738
head 9.73545 -1.46915 2.52547
rclavicle -2.98177e-015 1.35174e-014
rhumerus -38.2361 -21.0918 -72.9267
rradius 25.7998
rwrist 12.3318
rhand -13.4155 9.29398
rfingers 7.12502
rthumb 12.6927 -20.3003
lclavicle -2.98177e-015 1.35174e-014
lhumerus -24.0656 4.35232 86.8797
lradius 37.1048
lwrist -5.82715
lhand -17.0562 25.525
lfingers 7.12502
lthumb 9.18111 415.305
rfemur -26.928 1.67359 16.063
rtibia 19.9811
rfoot -2.59005 -4.83634
rtoes -8.51535
lfemur 9.56791 -2.19865 -28.3174
ltibia 22.6159
lfoot -14.557 2.0832
ltoes -20.4815
193
root 0.381793 17.3484 0.589147 1.28863 1.19489 4.65573
lowerback 6.56328 -2.69838 -6.47364
upperback -0.165828 -4.00354 2.56258
thorax -3.22636 -1.87016 6.67528
lowerneck -17.7174 -2.96851 -8.27292
upperneck 20.7668 -2.798 4.15424
head 9.68873 -1.48817 2.44465
rclavicle -1.03368e-014 -3.18055e-014
rhumerus -38.7226 -20.8163 -72.9299
rradius 26.063
rwrist 12.1024
rhand -13.4761 8.88503
rfingers 7.12502
rthumb 12.6342 -20.7129
lclavicle -1.03368e-014 -3.18055e-014
lhumerus -24.5851 4.50954 86.8478
lradius 37.054
lwrist -5.95787
lhand -17.0714 25.6743
lfingers 7.12502
lthumb 9.16649 415.455
rfemur -26.6502 2.21342 15.9791
rtibia 20.4388
rfoot -1.99346 -5.59335
rtoes -4.25733
lfemur 9.95952 -2.73859 -28.2362
ltibia 23.0768
lfoot -13.5393 1.74093
ltoes -20.615
194
root 0.355153 17.3725 0.764607 1.3412 1.43975 4.52417
lowerback 6.46628 -2.74416 -6.30807
upperback -0.302101 -4.04789 2.5843
thorax -3.31689 -1.88706 6.60667
lowerneck -17.5107 -2.92755 -8.30838
upperneck 20.917 -2.75896 4.17846
head 9.70168 -1.47453 2.46717
rclavicle 2.127e-014 -3.10104e-014
rhumerus -39.0576 -20.8626 -72.7129
rradius 25.9347
rwrist 12.15
rhand -13.4434 10.2888
rfingers 7.12502
rthumb 12.6658 -19.3071
lclavicle 2.127e-014 -3.10104e-014
lhumerus -24.9582 4.7666 86.8564
lradius 36.738
lwrist -6.12007
lhand -16.7669 25.8982
lfingers 7.12502
lthumb 9.4603 415.666
rfemur -26.3732 2.52264 16.0476
rtibia 20.5182
rfoot 0.417476 -5.35845
rtoes -11.2509
lfemur 10.0955 -3.33284 -28.0733
ltibia 23.7546
lfoot -12.4581 1.62451
ltoes -21.9264
195
root 0.329465 17.4001 0.945108 1.29361 1.62123 4.23265
lowerback 6.53038 -2.76472 -6.01258
upperback -0.445123 -4.05432 2.6957
thorax -3.51333 -1.88232 6.56818
lowerneck -17.5434 -2.90819 -8.434
upperneck 21.2369 -2.70152 4.1841
head 9.81948 -1.46176 2.50142
rclavicle -1.5207e-014 1.35174e-014
rhumerus -39.3954 -20.6699 -72.4893
rradius 25.8302
rwrist 11.8811
rhand -13.3246 11.2639
rfingers 7.12502
rthumb 12.7803 -18.3249
lclavicle -1.5207e-014 1.35174e-014
lhumerus -25.307 5.02933 86.9305
lradius 36.3124
lwrist -6.16646
lhand -16.6598 26.1523
lfingers 7.12502
lthumb 9.56361 415.915
rfemur -25.759 2.82575 16.3611
rtibia 20.3017
rfoot 1.1264 -5.75353
rtoes -9.37369
lfemur 9.99782 -3.8502 -27.7557
ltibia 24.883
lfoot -11.4931 1.5608
ltoes -23.7353
196
root 0.3045 17.4232 1.12225 1.16744 1.63365 3.78815
lowerback 6.64505 -2.74297 -5.61729
upperback -0.536645 -3.99489 2.85566
thorax -3.69751 -1.84887 6.5208
lowerneck -17.6982 -2.85695 -8.44619
upperneck 21.6544 -2.60191 4.10882
head 9.9895 -1.43016 2.49488
rclavicle -9.98893e-015 2.38542e-015
rhumerus -39.7082 -20.4648 -72.3301
rradius 25.8937
rwrist 11.7135
rhand -13.4527 10.6119
rfingers 7.12502
rthumb 12.6568 -18.9846
lclavicle -9.98893e-015 2.38542e-015
lhumerus -25.7667 5.3119 86.9831
lradius 36.0379
lwrist -6.23227
lhand -16.7179 25.9856
lfingers 7.12502
lthumb 9.50755 415.751
rfemur -25.0807 3.10862 16.8971
rtibia 20.0451
rfoot 1.43287 -5.69384
rtoes -3.89671
lfemur 9.68666 -4.18563 -27.2579
ltibia 26.4007
lfoot -10.454 1.3777
ltoes -25.2021
197
root 0.278836 17.438 1.29031 1.0751 1.58786 3.36919
lowerback 6.65639 -2.69622 -5.28513
upperback -0.510448 -3.89973 3.01678
thorax -3.70104 -1.80739 6.49496
lowerneck -17.8487 -2.82179 -8.51674
upperneck 21.7943 -2.51958 4.10558
head 10.0632 -1.399 2.51815
rclavicle 4.46769e-014 7.95139e-015
rhumerus -39.7739 -20.5363 -72.1171
rradius 25.8296
rwrist 11.8904
rhand -13.523 9.77025
rfingers 7.12502
rthumb 12.589 -19.8304
lclavicle 4.46769e-014 7.95139e-015
lhumerus -25.9282 5.78937 87.0225
lradius 35.4871
lwrist -6.60489
lhand -16.3698 26.2907
lfingers 7.12502
lthumb 9.84342 416.041
rfemur -24.5637 3.32413 17.4624
rtibia 20.0367
rfoot 2.01575 -5.19694
rtoes 0.791121
lfemur 9.20308 -4.3439 -26.7584
ltibia 28.0709
lfoot -9.28893 1.14479
ltoes -26.1527
198
root 0.255184 17.4594 1.46827 0.922223 1.86723 3.01982
lowerback 6.57106 -2.77143 -4.92446
upperback -0.448629 -3.96378 3.10774
thorax -3.59604 -1.85147 6.38233
lowerneck -17.7272 -2.81121 -8.63466
upperneck 21.706 -2.51035 4.2257
head 10.0113 -1.39031 2.58126
rclavicle -2.01766e-014 -7.95139e-015
rhumerus -39.8673 -20.6553 -71.9361
rradius 25.6618
rwrist 12.0643
rhand -13.659 9.50262
rfingers 7.12502
rthumb 12.4579 -20.1061
lclavicle -2.01766e-014 -7.95139e-015
lhumerus -26.0251 6.48858 86.946
lradius 34.8173
lwrist -7.3154
lhand -15.0005 28.1861
lfingers 7.12502
lthumb 11.1642 417.869
rfemur -23.9155 3.02584 18.0606
rtibia 20.3452
rfoot 2.5401 -4.50707
rtoes -1.7726
lfemur 8.74229 -4.5583 -26.2531
ltibia 29.8581
lfoot -7.72507 0.522657
ltoes -26.4628
